<?xml version="1.0" encoding="utf-8"?>
<!-- Generator: Adobe Illustrator 20.1.0, SVG Export Plug-In . SVG Version: 6.00 Build 0)  -->
<svg version="1.1" id="Ebene_1" xmlns="http://www.w3.org/2000/svg" xmlns:xlink="http://www.w3.org/1999/xlink" x="0px" y="0px"
	 viewBox="0 0 100 100" style="enable-background:new 0 0 100 100;" xml:space="preserve">
<g id="_x37_0x70_8_">
	<path style="fill:#fc0;" d="M50,1C31.037,1,15.7,16.337,15.7,35.3C15.7,61.025,50,99,50,99s34.3-37.975,34.3-63.7
		C84.3,16.337,68.963,1,50,1z"/>
	<path style="fill:#FFFFFF;" d="M52.435,21.253c1.187,0,2.269,0.105,3.247,0.314c0.977,0.209,1.816,0.553,2.514,1.03
		c0.698,0.477,1.239,1.112,1.624,1.903c0.384,0.792,0.576,1.769,0.576,2.933c0,1.257-0.285,2.304-0.856,3.142
		c-0.57,0.838-1.414,1.525-2.531,2.06c1.536,0.443,2.683,1.217,3.439,2.322c0.756,1.106,1.135,2.439,1.135,3.997
		c0,1.257-0.244,2.345-0.733,3.265c-0.489,0.92-1.147,1.67-1.973,2.252c-0.827,0.582-1.769,1.012-2.828,1.292
		c-1.06,0.279-2.147,0.419-3.264,0.419h-12.08V21.253H52.435z"/>
	<path style="fill:#fc0;" d="M51.737,31.344c0.977,0,1.781-0.232,2.409-0.698c0.628-0.465,0.943-1.222,0.943-2.27
		c0-0.582-0.105-1.059-0.314-1.431c-0.209-0.372-0.489-0.663-0.838-0.873s-0.751-0.355-1.204-0.436
		c-0.454-0.081-0.925-0.122-1.414-0.122h-5.132v5.83H51.737z"/>
	<path style="fill:#fc0;" d="M52.051,41.923c0.535,0,1.048-0.052,1.536-0.157c0.489-0.105,0.919-0.279,1.292-0.524
		c0.372-0.244,0.669-0.576,0.89-0.995c0.221-0.419,0.332-0.954,0.332-1.606c0-1.28-0.361-2.194-1.082-2.741
		c-0.722-0.547-1.676-0.821-2.863-0.821h-5.97v6.843H52.051z"/>
</g>
</svg>
